<svg width="45" height="46" viewBox="0 0 45 46" fill="none" xmlns="http://www.w3.org/2000/svg">
<path d="M22.5004 19.7147C15.5211 19.7147 5.62562 32.3193 5.62562 40.2758C5.62562 43.8592 7.98194 46 11.9308 46C16.2234 46 19.0578 43.4249 22.5004 43.4249C25.973 43.4249 28.8153 46 33.0701 46C37.0189 46 39.3753 43.8592 39.3753 40.2758C39.3753 32.3193 29.4798 19.7147 22.5004 19.7147ZM9.55604 18.4199C8.64199 14.8622 5.826 12.5581 3.26666 13.2727C0.707308 13.9874 -0.625979 17.4507 0.288074 21.0084C1.20213 24.5662 4.01811 26.8703 6.57746 26.1556C9.13681 25.441 10.4701 21.9777 9.55604 18.4199ZM17.0021 16.2863C19.7214 15.4505 21.0819 11.1586 20.0413 6.7004C19.0007 2.24216 15.9527 -0.693372 13.2333 0.142418C10.514 0.978209 9.15351 5.27011 10.1941 9.72834C11.2347 14.1866 14.2836 17.1231 17.0021 16.2863ZM41.7333 13.2738C39.174 12.5591 36.3589 14.8632 35.444 18.421C34.5299 21.9787 35.8632 25.442 38.4225 26.1567C40.9819 26.8713 43.797 24.5672 44.7119 21.0095C45.626 17.4517 44.2927 13.9884 41.7333 13.2738ZM27.9988 16.2863C30.7181 17.1221 33.7661 14.1866 34.8068 9.72834C35.8474 5.27011 34.4868 0.979235 31.7675 0.142418C29.0482 -0.694399 26.0002 2.24216 24.9596 6.7004C23.919 11.1586 25.2795 15.4505 27.9988 16.2863Z" fill="#96C268"/>
</svg>
